HIERARCHY
ROOT pelvis
{
  OFFSET 0 100 0
  CHANNELS 6 Xposition Yposition Zposition Zrotation Xrotation Yrotation
  JOINT pelvis_right_femur
  {
    OFFSET -10.78128 -3.44521 -0.5502486
    CHANNELS 3 Zrotation Xrotation Yrotation
    JOINT right_femur_tibia
    {
      OFFSET -0.8047443 -44.0398 -0.1307829
      CHANNELS 3 Zrotation Xrotation Yrotation
      JOINT right_tibia_foot
      {
        OFFSET 3.006224 -47.83518 -5
        CHANNELS 3 Zrotation Xrotation Yrotation
        End Site
        {
          OFFSET 0 -5 15
        }
      }
    }
  }
  JOINT pelvis_left_femur
  {
    OFFSET 10.78128 -3.44521 -0.5502486
    CHANNELS 3 Zrotation Xrotation Yrotation
    JOINT left_femur_tibia
    {
      OFFSET 0.8047443 -44.0398 -0.1307829
      CHANNELS 3 Zrotation Xrotation Yrotation
      JOINT left_tibia_foot
      {
        OFFSET -4.370144 -48.10324 -4.275266
        CHANNELS 3 Zrotation Xrotation Yrotation
        End Site
        {
          OFFSET 0 -5 15
        }
      }
    }
  }
  JOINT pelvis_spine1
  {
    OFFSET 0 6.468898 -3.129235
    CHANNELS 3 Zrotation Xrotation Yrotation
    JOINT spine1
    {
      OFFSET 0 23.15396 4.99043
      CHANNELS 3 Zrotation Xrotation Yrotation
      JOINT spine2
      {
        OFFSET 0 20.79997 -5.064912
        CHANNELS 3 Zrotation Xrotation Yrotation
        JOINT neck
        {
          OFFSET 0 14.38658 9.616178
          CHANNELS 3 Zrotation Xrotation Yrotation
          End Site
          {
            OFFSET 0 20 0
          }
        }
      }
      JOINT right_manubrium
      {
        OFFSET -5.722621 16.35077 3.967754
        CHANNELS 3 Zrotation Xrotation Yrotation
        JOINT right_clavicle
        {
          OFFSET -13.16364 1.694482 -4.693211
          CHANNELS 3 Zrotation Xrotation Yrotation
          JOINT right_humerus
          {
            OFFSET -28.5034 -0.3100689 -2.792744
            CHANNELS 3 Zrotation Xrotation Yrotation
            JOINT right_radius
            {
              OFFSET -25.15693 0.02248979 -1.271978
              CHANNELS 3 Zrotation Xrotation Yrotation
              End Site
              {
                OFFSET -15 0 0
              }
            }
          }
        }
      }
      JOINT left_manubrium
      {
        OFFSET 5.722621 16.35077 3.967754
        CHANNELS 3 Zrotation Xrotation Yrotation
        JOINT left_clavicle
        {
          OFFSET 13.16364 1.694482 -4.693211
          CHANNELS 3 Zrotation Xrotation Yrotation
          JOINT left_humerus
          {
            OFFSET 29.39168 -1.063119 -2.237045
            CHANNELS 3 Zrotation Xrotation Yrotation
            JOINT left_radius
            {
              OFFSET 24.59957 -0.9528479 0.9047498
              CHANNELS 3 Zrotation Xrotation Yrotation
              End Site
              {
                OFFSET 15 -0 -0
              }
            }
          }
        }
      }
    }
  }
}
MOTION
Frames: 23
Frame Time: 0.0416666666667
-376.6809 114.5171 24.31859 10.09796 -6.195729 65.74417 6.155998 11.36201 1.088731 -0 23.21429 -0 -6.255715 -4.101941 -1.10382 3.930993 -11.11364 -2.63739 -0 10.70595 -0 2.489112 0.3419125 14.45001 2.983136 -5.258339 7.568225 -0.5959906 19.66796 -5.766751 0.964072 17.39952 3.219528 1.221343 -17.30842 4.230514 -0.6895025 -33.0794 14.20202 90.05858 9.696188 -11.14376 -0 0 30.8696 -31.63913 21.8481 19.44914 2.105916 -24.50312 -10.88203 -93.95466 5.933271 38.59123 0 0 -11.37562 5.822423 13.90772 6.772306
-370.4466 114.495 25.75329 10.02214 -6.318397 65.04859 6.155998 11.36201 1.088731 -0 23.21429 -0 -6.255715 -4.101941 -1.10382 3.930993 -11.11364 -2.63739 -0 10.70595 -0 2.489112 0.3419125 14.45001 2.983136 -5.258339 7.568225 -0.5959906 19.66796 -5.766751 0.964072 17.39952 3.219528 1.221343 -17.30842 4.230514 -0.6895025 -33.0794 14.20202 90.05858 9.696188 -11.14376 -0 0 30.8696 -31.63913 21.8481 19.44914 2.105916 -24.50312 -10.88203 -93.95466 5.933271 38.59123 0 0 -11.37562 5.822423 13.90772 6.772306
-364.2304 114.473 27.26428 9.944822 -6.440141 64.35268 6.155998 11.36201 1.088731 -0 23.21429 -0 -6.255715 -4.101941 -1.10382 3.930993 -11.11364 -2.63739 -0 10.70595 -0 2.489112 0.3419125 14.45001 2.983136 -5.258339 7.568225 -0.5959906 19.66796 -5.766751 0.964072 17.39952 3.219528 1.221343 -17.30842 4.230514 -0.6895025 -33.0794 14.20202 90.05858 9.696188 -11.14376 -0 0 30.8696 -31.63913 21.8481 19.44914 2.105916 -24.50312 -10.88203 -93.95466 5.933271 38.59123 0 0 -11.37562 5.822423 13.90772 6.772306
-358.0331 114.4509 28.85134 9.865997 -6.560943 63.65643 6.155998 11.36201 1.088731 -0 23.21429 -0 -6.255715 -4.101941 -1.10382 3.930993 -11.11364 -2.63739 -0 10.70595 -0 2.489112 0.3419125 14.45001 2.983136 -5.258339 7.568225 -0.5959906 19.66796 -5.766751 0.964072 17.39952 3.219528 1.221343 -17.30842 4.230514 -0.6895025 -33.0794 14.20202 90.05858 9.696188 -11.14376 -0 0 30.8696 -31.63913 21.8481 19.44914 2.105916 -24.50312 -10.88203 -93.95466 5.933271 38.59123 0 0 -11.37562 5.822423 13.90772 6.772306
-351.8558 114.4289 30.51424 9.785681 -6.680783 62.95986 6.155998 11.36201 1.088731 -0 23.21429 -0 -6.255715 -4.101941 -1.10382 3.930993 -11.11364 -2.63739 -0 10.70595 -0 2.489112 0.3419125 14.45001 2.983136 -5.258339 7.568225 -0.5959906 19.66796 -5.766751 0.964072 17.39952 3.219528 1.221343 -17.30842 4.230514 -0.6895025 -33.0794 14.20202 90.05858 9.696188 -11.14376 -0 0 30.8696 -31.63913 21.8481 19.44914 2.105916 -24.50312 -10.88203 -93.95466 5.933271 38.59123 0 0 -11.37562 5.822423 13.90772 6.772306
-345.6993 114.4068 32.25273 9.703884 -6.799645 62.26294 6.155998 11.36201 1.088731 -0 23.21429 -0 -6.255715 -4.101941 -1.10382 3.930993 -11.11364 -2.63739 -0 10.70595 -0 2.489112 0.3419125 14.45001 2.983136 -5.258339 7.568225 -0.5959906 19.66796 -5.766751 0.964072 17.39952 3.219528 1.221343 -17.30842 4.230514 -0.6895025 -33.0794 14.20202 90.05858 9.696188 -11.14376 -0 0 30.8696 -31.63913 21.8481 19.44914 2.105916 -24.50312 -10.88203 -93.95466 5.933271 38.59123 0 0 -11.37562 5.822423 13.90772 6.772306
-339.5646 114.3848 34.06654 9.620617 -6.91751 61.56567 6.155998 11.36201 1.088731 -0 23.21429 -0 -6.255715 -4.101941 -1.10382 3.930993 -11.11364 -2.63739 -0 10.70595 -0 2.489112 0.3419125 14.45001 2.983136 -5.258339 7.568225 -0.5959906 19.66796 -5.766751 0.964072 17.39952 3.219528 1.221343 -17.30842 4.230514 -0.6895025 -33.0794 14.20202 90.05858 9.696188 -11.14376 -0 0 30.8696 -31.63913 21.8481 19.44914 2.105916 -24.50312 -10.88203 -93.95466 5.933271 38.59123 0 0 -11.37562 5.822423 13.90772 6.772306
-333.4526 114.3627 35.95539 9.535889 -7.034359 60.86806 6.155998 11.36201 1.088731 -0 23.21429 -0 -6.255715 -4.101941 -1.10382 3.930993 -11.11364 -2.63739 -0 10.70595 -0 2.489112 0.3419125 14.45001 2.983136 -5.258339 7.568225 -0.5959906 19.66796 -5.766751 0.964072 17.39952 3.219528 1.221343 -17.30842 4.230514 -0.6895025 -33.0794 14.20202 90.05858 9.696188 -11.14376 -0 0 30.8696 -31.63913 21.8481 19.44914 2.105916 -24.50312 -10.88203 -93.95466 5.933271 38.59123 0 0 -11.37562 5.822423 13.90772 6.772306
-327.3642 114.3407 37.91902 9.449713 -7.150176 60.1701 6.155998 11.36201 1.088731 -0 23.21429 -0 -6.255715 -4.101941 -1.10382 3.930993 -11.11364 -2.63739 -0 10.70595 -0 2.489112 0.3419125 14.45001 2.983136 -5.258339 7.568225 -0.5959906 19.66796 -5.766751 0.964072 17.39952 3.219528 1.221343 -17.30842 4.230514 -0.6895025 -33.0794 14.20202 90.05858 9.696188 -11.14376 -0 0 30.8696 -31.63913 21.8481 19.44914 2.105916 -24.50312 -10.88203 -93.95466 5.933271 38.59123 0 0 -11.37562 5.822423 13.90772 6.772306
-321.3003 114.3186 39.95712 9.362099 -7.264942 59.47179 6.155998 11.36201 1.088731 -0 23.21429 -0 -6.255715 -4.101941 -1.10382 3.930993 -11.11364 -2.63739 -0 10.70595 -0 2.489112 0.3419125 14.45001 2.983136 -5.258339 7.568225 -0.5959906 19.66796 -5.766751 0.964072 17.39952 3.219528 1.221343 -17.30842 4.230514 -0.6895025 -33.0794 14.20202 90.05858 9.696188 -11.14376 -0 0 30.8696 -31.63913 21.8481 19.44914 2.105916 -24.50312 -10.88203 -93.95466 5.933271 38.59123 0 0 -11.37562 5.822423 13.90772 6.772306
-315.2618 114.2965 42.06938 9.273058 -7.37864 58.77313 6.155998 11.36201 1.088731 -0 23.21429 -0 -6.255715 -4.101941 -1.10382 3.930993 -11.11364 -2.63739 -0 10.70595 -0 2.489112 0.3419125 14.45001 2.983136 -5.258339 7.568225 -0.5959906 19.66796 -5.766751 0.964072 17.39952 3.219528 1.221343 -17.30842 4.230514 -0.6895025 -33.0794 14.20202 90.05858 9.696188 -11.14376 -0 0 30.8696 -31.63913 21.8481 19.44914 2.105916 -24.50312 -10.88203 -93.95466 5.933271 38.59123 0 0 -11.37562 5.822423 13.90772 6.772306
-309.2497 114.2745 44.25549 9.182603 -7.491252 58.0741 6.155998 11.36201 1.088731 -0 23.21429 -0 -6.255715 -4.101941 -1.10382 3.930993 -11.11364 -2.63739 -0 10.70595 -0 2.489112 0.3419125 14.45001 2.983136 -5.258339 7.568225 -0.5959906 19.66796 -5.766751 0.964072 17.39952 3.219528 1.221343 -17.30842 4.230514 -0.6895025 -33.0794 14.20202 90.05858 9.696188 -11.14376 -0 0 30.8696 -31.63913 21.8481 19.44914 2.105916 -24.50312 -10.88203 -93.95466 5.933271 38.59123 0 0 -11.37562 5.822423 13.90772 6.772306
-303.2648 114.2524 46.51513 9.090745 -7.602761 57.37472 6.155998 11.36201 1.088731 -0 23.21429 -0 -6.255715 -4.101941 -1.10382 3.930993 -11.11364 -2.63739 -0 10.70595 -0 2.489112 0.3419125 14.45001 2.983136 -5.258339 7.568225 -0.5959906 19.66796 -5.766751 0.964072 17.39952 3.219528 1.221343 -17.30842 4.230514 -0.6895025 -33.0794 14.20202 90.05858 9.696188 -11.14376 -0 0 30.8696 -31.63913 21.8481 19.44914 2.105916 -24.50312 -10.88203 -93.95466 5.933271 38.59123 0 0 -11.37562 5.822423 13.90772 6.772306
-297.3081 114.2304 48.84794 8.997497 -7.71315 56.67497 6.155998 11.36201 1.088731 -0 23.21429 -0 -6.255715 -4.101941 -1.10382 3.930993 -11.11364 -2.63739 -0 10.70595 -0 2.489112 0.3419125 14.45001 2.983136 -5.258339 7.568225 -0.5959906 19.66796 -5.766751 0.964072 17.39952 3.219528 1.221343 -17.30842 4.230514 -0.6895025 -33.0794 14.20202 90.05858 9.696188 -11.14376 -0 0 30.8696 -31.63913 21.8481 19.44914 2.105916 -24.50312 -10.88203 -93.95466 5.933271 38.59123 0 0 -11.37562 5.822423 13.90772 6.772306
-291.3804 114.2083 51.25359 8.90287 -7.822402 55.97486 6.155998 11.36201 1.088731 -0 23.21429 -0 -6.255715 -4.101941 -1.10382 3.930993 -11.11364 -2.63739 -0 10.70595 -0 2.489112 0.3419125 14.45001 2.983136 -5.258339 7.568225 -0.5959906 19.66796 -5.766751 0.964072 17.39952 3.219528 1.221343 -17.30842 4.230514 -0.6895025 -33.0794 14.20202 90.05858 9.696188 -11.14376 -0 0 30.8696 -31.63913 21.8481 19.44914 2.105916 -24.50312 -10.88203 -93.95466 5.933271 38.59123 0 0 -11.37562 5.822423 13.90772 6.772306
-285.4826 114.1863 53.7317 8.806878 -7.9305 55.27439 6.155998 11.36201 1.088731 -0 23.21429 -0 -6.255715 -4.101941 -1.10382 3.930993 -11.11364 -2.63739 -0 10.70595 -0 2.489112 0.3419125 14.45001 2.983136 -5.258339 7.568225 -0.5959906 19.66796 -5.766751 0.964072 17.39952 3.219528 1.221343 -17.30842 4.230514 -0.6895025 -33.0794 14.20202 90.05858 9.696188 -11.14376 -0 0 30.8696 -31.63913 21.8481 19.44914 2.105916 -24.50312 -10.88203 -93.95466 5.933271 38.59123 0 0 -11.37562 5.822423 13.90772 6.772306
-279.6157 114.1642 56.28191 8.709533 -8.037427 54.57355 6.155998 11.36201 1.088731 -0 23.21429 -0 -6.255715 -4.101941 -1.10382 3.930993 -11.11364 -2.63739 -0 10.70595 -0 2.489112 0.3419125 14.45001 2.983136 -5.258339 7.568225 -0.5959906 19.66796 -5.766751 0.964072 17.39952 3.219528 1.221343 -17.30842 4.230514 -0.6895025 -33.0794 14.20202 90.05858 9.696188 -11.14376 -0 0 30.8696 -31.63913 21.8481 19.44914 2.105916 -24.50312 -10.88203 -93.95466 5.933271 38.59123 0 0 -11.37562 5.822423 13.90772 6.772306
-273.7804 114.1422 58.90384 8.610848 -8.143167 53.87234 6.155998 11.36201 1.088731 -0 23.21429 -0 -6.255715 -4.101941 -1.10382 3.930993 -11.11364 -2.63739 -0 10.70595 -0 2.489112 0.3419125 14.45001 2.983136 -5.258339 7.568225 -0.5959906 19.66796 -5.766751 0.964072 17.39952 3.219528 1.221343 -17.30842 4.230514 -0.6895025 -33.0794 14.20202 90.05858 9.696188 -11.14376 -0 0 30.8696 -31.63913 21.8481 19.44914 2.105916 -24.50312 -10.88203 -93.95466 5.933271 38.59123 0 0 -11.37562 5.822423 13.90772 6.772306
-267.9777 114.1201 61.59708 8.510837 -8.247703 53.17077 6.155998 11.36201 1.088731 -0 23.21429 -0 -6.255715 -4.101941 -1.10382 3.930993 -11.11364 -2.63739 -0 10.70595 -0 2.489112 0.3419125 14.45001 2.983136 -5.258339 7.568225 -0.5959906 19.66796 -5.766751 0.964072 17.39952 3.219528 1.221343 -17.30842 4.230514 -0.6895025 -33.0794 14.20202 90.05858 9.696188 -11.14376 -0 0 30.8696 -31.63913 21.8481 19.44914 2.105916 -24.50312 -10.88203 -93.95466 5.933271 38.59123 0 0 -11.37562 5.822423 13.90772 6.772306
-262.2085 114.098 64.36124 8.409514 -8.351018 52.46882 6.155998 11.36201 1.088731 -0 23.21429 -0 -6.255715 -4.101941 -1.10382 3.930993 -11.11364 -2.63739 -0 10.70595 -0 2.489112 0.3419125 14.45001 2.983136 -5.258339 7.568225 -0.5959906 19.66796 -5.766751 0.964072 17.39952 3.219528 1.221343 -17.30842 4.230514 -0.6895025 -33.0794 14.20202 90.05858 9.696188 -11.14376 -0 0 30.8696 -31.63913 21.8481 19.44914 2.105916 -24.50312 -10.88203 -93.95466 5.933271 38.59123 0 0 -11.37562 5.822423 13.90772 6.772306
-256.4735 114.076 67.1959 8.306891 -8.453097 51.76651 6.155998 11.36201 1.088731 -0 23.21429 -0 -6.255715 -4.101941 -1.10382 3.930993 -11.11364 -2.63739 -0 10.70595 -0 2.489112 0.3419125 14.45001 2.983136 -5.258339 7.568225 -0.5959906 19.66796 -5.766751 0.964072 17.39952 3.219528 1.221343 -17.30842 4.230514 -0.6895025 -33.0794 14.20202 90.05858 9.696188 -11.14376 -0 0 30.8696 -31.63913 21.8481 19.44914 2.105916 -24.50312 -10.88203 -93.95466 5.933271 38.59123 0 0 -11.37562 5.822423 13.90772 6.772306
-250.7738 114.0539 70.10064 8.202984 -8.553924 51.06383 6.155998 11.36201 1.088731 -0 23.21429 -0 -6.255715 -4.101941 -1.10382 3.930993 -11.11364 -2.63739 -0 10.70595 -0 2.489112 0.3419125 14.45001 2.983136 -5.258339 7.568225 -0.5959906 19.66796 -5.766751 0.964072 17.39952 3.219528 1.221343 -17.30842 4.230514 -0.6895025 -33.0794 14.20202 90.05858 9.696188 -11.14376 -0 0 30.8696 -31.63913 21.8481 19.44914 2.105916 -24.50312 -10.88203 -93.95466 5.933271 38.59123 0 0 -11.37562 5.822423 13.90772 6.772306
-245.1101 114.0319 73.07501 8.097806 -8.653483 50.36077 6.155998 11.36201 1.088731 -0 23.21429 -0 -6.255715 -4.101941 -1.10382 3.930993 -11.11364 -2.63739 -0 10.70595 -0 2.489112 0.3419125 14.45001 2.983136 -5.258339 7.568225 -0.5959906 19.66796 -5.766751 0.964072 17.39952 3.219528 1.221343 -17.30842 4.230514 -0.6895025 -33.0794 14.20202 90.05858 9.696188 -11.14376 -0 0 30.8696 -31.63913 21.8481 19.44914 2.105916 -24.50312 -10.88203 -93.95466 5.933271 38.59123 0 0 -11.37562 5.822423 13.90772 6.772306
